<svg xmlns="http://www.w3.org/2000/svg" viewBox="0 0 365.63 93.3"><defs><style>.cls-1{fill:#fff;}</style></defs><g id="Layer_2" data-name="Layer 2"><g id="Layer_1-2" data-name="Layer 1"><path class="cls-1" d="M0,0H14.25l-.12,71.74L63.93,0H78.17L14,92H.14Z"/><path class="cls-1" d="M48.43,60.77c6.45-18.53,25.61-33,44.15-33s27.79,13.62,21.26,32.4l-1.62,4.67H59.89c-1.86,9.71,2.87,16.77,14,16.77A25.11,25.11,0,0,0,94.6,70.86h14.5c-9.78,14-23.19,22.44-39.45,22.44C49.73,93.3,42.25,78.55,48.43,60.77Zm16.29-7.31h37.7c.72-9-4.3-13.74-13.88-13.74C79.33,39.72,70.17,45.39,64.72,53.46Z"/><path class="cls-1" d="M132,29h13.37l-2.85,8.2c6.47-5.93,14.26-9.46,22.71-9.46,16,0,22,10.21,16,27.49L168.4,92H154.79L167.2,56.36c3.64-10.46.71-16.89-9.38-16.89-9.08,0-18.38,6.8-22.24,17.9L123.52,92H110Z"/><path class="cls-1" d="M186.31,60.77c6.45-18.53,25.61-33,44.15-33s27.79,13.62,21.26,32.4l-1.63,4.67H197.77c-1.87,9.71,2.86,16.77,14,16.77a25.13,25.13,0,0,0,20.75-10.72H247c-9.79,14-23.19,22.44-39.45,22.44C187.61,93.3,180.13,78.55,186.31,60.77Zm16.29-7.31h37.7c.72-9-4.3-13.74-13.88-13.74C217.21,39.72,208.05,45.39,202.6,53.46Z"/><path class="cls-1" d="M269.83,29h13.49l-3.38,9.71C285.5,32.53,292.27,29,300.72,29h7.44l-4.47,12.86h-9.46c-11.09,0-17.27,5.8-21.83,18.91L261.52,92H247.9Z"/><path class="cls-1" d="M298.3,60.52c6.45-18.53,25.91-32.78,44.06-32.78S370.06,42,363.62,60.52C357.26,78.8,337.71,93.3,319.56,93.3S291.94,78.8,298.3,60.52Zm52.08,0c3.86-11.1-1.69-20.17-12.4-20.17-11.1,0-22.45,9.07-26.31,20.17s1.18,20.18,12.27,20.18C334.66,80.7,346.52,71.62,350.38,60.52Z"/></g></g></svg>