<svg xmlns="http://www.w3.org/2000/svg" viewBox="0 0 521.49 517.58"><defs><style>.cls-1{fill:#ff9528;}.cls-2{fill:#df5a28;}.cls-3{fill:#3f7ea6;}.cls-4{fill:#023059;}.cls-5{fill:#fff;}</style></defs><g id="Layer_2" data-name="Layer 2"><g id="Layer_1-2" data-name="Layer 1"><path class="cls-1" d="M64.28,331.9h0L0,517.58H79.32l51-147.38H130l16.74-48.35A79.14,79.14,0,1,0,9.53,247.56l75,26Z"/><path class="cls-2" d="M120.2,399.26l-41,118.32h78.62l4.84-14h.12L246.47,262l-.85-.3,29.63-85.55a132.07,132.07,0,0,0,4.67-13.51l1.73-5-.37-.13A132.08,132.08,0,0,0,191.49,0L167,70.77a57.21,57.21,0,0,1,41.65,69.13l.49.17-40.6,117.25h0L119.37,399.26Z"/><path class="cls-3" d="M157.37,517.58H236l51-147.38h-.44l50.83-146.78a57.21,57.21,0,1,1,52.06,80.91c-.35,0-.7,0-1,0l-25,72.2A132,132,0,1,0,261,217L170.86,477.38h.43Z"/><polygon class="cls-4" points="314.63 517.58 356.1 397.82 285.9 373.51 236.01 517.58 314.63 517.58"/><path class="cls-5" d="M46.51,426.13H57l-.09,52.56,36.48-52.56h10.44l-47,67.43H46.61Z"/><path class="cls-5" d="M82,470.65c4.72-13.58,18.76-24.2,32.34-24.2s20.36,10,15.58,23.74l-1.19,3.42H90.38c-1.36,7.11,2.1,12.28,10.23,12.28a18.41,18.41,0,0,0,15.2-7.85h10.62c-7.16,10.25-17,16.44-28.9,16.44C82.94,494.48,77.46,483.68,82,470.65Zm11.93-5.36h27.62c.53-6.55-3.15-10.06-10.17-10.06C104.63,455.23,97.92,459.38,93.92,465.29Z"/><path class="cls-5" d="M143.18,447.37H153l-2.09,6c4.74-4.34,10.44-6.93,16.63-6.93,11.73,0,16.15,7.48,11.75,20.14l-9.38,27h-10l9.1-26.14c2.66-7.67.51-12.38-6.88-12.38-6.65,0-13.46,5-16.29,13.12L137,493.56h-9.89Z"/><path class="cls-5" d="M183,470.65c4.72-13.58,18.76-24.2,32.34-24.2s20.36,10,15.57,23.74l-1.18,3.42H191.39c-1.36,7.11,2.1,12.28,10.23,12.28a18.41,18.41,0,0,0,15.2-7.85h10.62c-7.17,10.25-17,16.44-28.9,16.44C184,494.48,178.47,483.68,183,470.65Zm11.93-5.36h27.62c.52-6.55-3.15-10.06-10.17-10.06C205.64,455.23,198.92,459.38,194.93,465.29Z"/><path class="cls-5" d="M244.18,447.37h9.89l-2.48,7.12c4.07-4.53,9-7.12,15.22-7.12h5.45L269,456.8h-6.93c-8.13,0-12.65,4.25-16,13.85l-8,22.91h-10Z"/><path class="cls-5" d="M265,470.47c4.72-13.58,19-24,32.28-24s20.29,10.44,15.57,24c-4.66,13.39-19,24-32.28,24S260.38,483.86,265,470.47Zm38.15,0c2.83-8.13-1.23-14.78-9.08-14.78-8.13,0-16.45,6.65-19.28,14.78s.87,14.78,9,14.78C291.68,485.25,300.36,478.6,303.19,470.47Z"/></g></g></svg>