<svg xmlns="http://www.w3.org/2000/svg" viewBox="0 0 922.32 1001.82"><defs><style>.cls-1{fill:#023059;}.cls-2{fill:#3f7ea6;}.cls-3{fill:#df5a28;}.cls-4{fill:#ff9528;}.cls-5{fill:#fff;}</style></defs><g id="Layer_2" data-name="Layer 2"><g id="Layer_1-2" data-name="Layer 1"><polygon class="cls-1" points="922.32 0 575.4 1001.83 430.75 1001.83 777.66 0 922.32 0"/><polygon class="cls-2" points="777.66 0 430.75 1001.83 286.08 1001.83 633 0 777.66 0"/><polygon class="cls-3" points="634.73 0 287.81 1001.83 143.15 1001.83 490.07 0 634.73 0"/><polygon class="cls-4" points="491.57 0 144.66 1001.83 0 1001.83 346.91 0 491.57 0"/><path class="cls-5" d="M279.74,443.4H294l-.11,71.74,49.79-71.74h14.25l-64.17,92H279.88Z"/><path class="cls-5" d="M328.18,504.17c6.44-18.54,25.61-33,44.14-33s27.8,13.62,21.26,32.41L392,508.2H339.64c-1.87,9.71,2.86,16.77,14,16.77a25.14,25.14,0,0,0,20.75-10.71h14.5c-9.79,14-23.19,22.44-39.46,22.44C329.47,536.7,322,522,328.18,504.17Zm16.28-7.31h37.7c.72-9-4.29-13.75-13.88-13.75C359.08,483.11,349.92,488.79,344.46,496.86Z"/><path class="cls-5" d="M411.7,472.4h13.36l-2.85,8.19c6.48-5.92,14.26-9.46,22.71-9.46,16,0,22,10.22,16,27.49l-12.8,36.82H434.53l12.41-35.68c3.64-10.47.71-16.9-9.38-16.9-9.08,0-18.38,6.81-22.24,17.91l-12.06,34.67H389.77Z"/><path class="cls-5" d="M466.05,504.17c6.45-18.54,25.62-33,44.15-33s27.8,13.62,21.26,32.41l-1.62,4.66H477.51c-1.86,9.71,2.87,16.77,14,16.77a25.12,25.12,0,0,0,20.75-10.71h14.51c-9.79,14-23.19,22.44-39.46,22.44C467.35,536.7,459.87,522,466.05,504.17Zm16.29-7.31H520c.72-9-4.3-13.75-13.88-13.75C497,483.11,487.8,488.79,482.34,496.86Z"/><path class="cls-5" d="M549.58,472.4h13.49l-3.38,9.7c5.55-6.17,12.33-9.7,20.78-9.7h7.44l-4.48,12.86H574c-11.1,0-17.28,5.8-21.84,18.91l-10.87,31.27H527.65Z"/><path class="cls-5" d="M578.05,503.92c6.44-18.54,25.9-32.79,44.06-32.79s27.7,14.25,21.25,32.79C637,522.2,617.46,536.7,599.3,536.7S571.69,522.2,578.05,503.92Zm52.07,0c3.86-11.1-1.68-20.18-12.4-20.18-11.1,0-22.45,9.08-26.31,20.18s1.18,20.17,12.28,20.17C614.41,524.09,626.26,515,630.12,503.92Z"/></g></g></svg>