<svg xmlns="http://www.w3.org/2000/svg" viewBox="0 0 374.07 95.46"><defs><style>.cls-1{fill:#023059;}</style></defs><g id="Layer_2" data-name="Layer 2"><g id="Layer_1-2" data-name="Layer 1"><path class="cls-1" d="M0,0H14.58l-.12,73.4L65.4,0H80L14.33,94.17H.14Z"/><path class="cls-1" d="M49.55,62.18c6.6-19,26.2-33.8,45.17-33.8s28.43,13.93,21.75,33.15l-1.66,4.77H61.27c-1.91,9.94,2.93,17.16,14.29,17.16a25.74,25.74,0,0,0,21.23-11h14.83c-10,14.31-23.72,23-40.37,23C50.87,95.46,43.22,80.36,49.55,62.18Zm16.66-7.49h38.57c.74-9.15-4.39-14.06-14.2-14.06C81.17,40.63,71.79,46.44,66.21,54.69Z"/><path class="cls-1" d="M135,29.67h13.67l-2.91,8.38c6.62-6.06,14.58-9.67,23.23-9.67,16.38,0,22.55,10.45,16.4,28.12l-13.1,37.67H158.36l12.7-36.51c3.72-10.7.72-17.28-9.6-17.28-9.29,0-18.8,7-22.75,18.31L126.37,94.17h-13.8Z"/><path class="cls-1" d="M190.61,62.18c6.59-19,26.2-33.8,45.16-33.8s28.44,13.93,21.76,33.15l-1.66,4.77H202.33c-1.9,9.94,2.93,17.16,14.29,17.16a25.7,25.7,0,0,0,21.22-11h14.84c-10,14.31-23.72,23-40.36,23C191.93,95.46,184.28,80.36,190.61,62.18Zm16.66-7.49h38.57c.74-9.15-4.39-14.06-14.2-14.06C222.23,40.63,212.85,46.44,207.27,54.69Z"/><path class="cls-1" d="M276.06,29.67h13.8L286.4,39.6c5.69-6.32,12.62-9.93,21.26-9.93h7.61L310.7,42.83H301c-11.35,0-17.67,5.93-22.34,19.35l-11.12,32H253.62Z"/><path class="cls-1" d="M305.19,61.92c6.59-19,26.5-33.54,45.07-33.54S378.6,43,372,61.92c-6.51,18.7-26.5,33.54-45.08,33.54S298.68,80.62,305.19,61.92Zm53.27,0c4-11.35-1.72-20.64-12.68-20.64-11.36,0-23,9.29-26.92,20.64s1.21,20.64,12.56,20.64C342.38,82.56,354.51,73.27,358.46,61.92Z"/></g></g></svg>